<?xml version="1.0" encoding="UTF-8"?>
<svg id="Layer_2" data-name="Layer 2" xmlns="http://www.w3.org/2000/svg" viewBox="0 0 216.97 80.22">
  <defs>
    <style>
      .cls-1 {
        fill: #fcfdfd;
      }

      .cls-1, .cls-2, .cls-3, .cls-4 {
        stroke-width: 0px;
      }

      .cls-2 {
        fill: #019608;
      }

      .cls-3 {
        fill: #f0f8fa;
      }

      .cls-4 {
        fill: #197af5;
      }
    </style>
  </defs>
  <g id="Layer_2-2" data-name="Layer 2">
    <g id="Layer_1-2" data-name="Layer 1-2">
      <g>
        <path class="cls-2" d="M.3,51.08c2.09,1.96,4.26,3.94,6.37,6,11.07,10.82,25.23,14.31,39.78,17.15,29.59,5.78,58.16,1.19,86.34-7.96,6.38-2.07,12.72-4.26,19.03-6.55,2.37-.86,2.75-.32,2.41,2.04-.36,2.51-1.43,4.07-3.83,4.94-30.4,10.99-61.67,15.47-93.92,12.74-17.45-1.48-33.75-7.02-49.53-14.28C.67,62.28-.71,59.18.3,51.08Z"/>
        <path class="cls-1" d="M56.82,36.86h-.03l.06-.03s-.05,0-.07.02c-.52.1-.88.29-1.14.54-.2.55-.42,1.24-.72,1.86h0c-.03.32-.05.63-.08.95-.08.77-.69,1.45-1.48,1.44-.98,0-.99-.91-1.02-1.67-.02-.62.02-1.24-.03-1.85-.31-3.73-2.82-5.14-6.23-3.51-1.7.82-3.07,2.15-4.71,3.06.34-.46.86-.87.49-1.55-.25-.45-.25-.46,0-.02.37.66,0,0-.02,0-1.95-1.54-4.03-2.86-6.53-3.29-3.61-.62-5.78,1.38-5.57,5.05.06,1.02.46,1.92.77,2.87,1.31,3.97,2.87,7.81,1.77,12.28-.64,2.57-.31,5.46,0,8.18.13,1.16.53,2.59,1.89,2.79-1.33-2.31-1.62-4.49-1.37-6.64.74-6.35.91-12.46-1.95-18.57-1.71-3.63,1.31-6.29,5.3-5.11,1.97.59,3.8,1.61,5.69,2.45-.66.88-1.33,1.77-1.99,2.65,1.78-.58,3.21-1.51,4.68-2.39,5.08-3.05,6.88-2.05,7.06,3.83.02.89-.59,2.23.81,2.5,1.48.3,2.43-.93,2.68-2.08.31-1.44.6-2.75,1.74-3.74,2.58,2.77-.16,4.61-1.15,6.8-.3.67-2.78,3.07-3.42,4.18-.66.45-.93,1.56-1.97,1.33-.72-1.65,2.12-6.49.23-4.9-1.88,1.58-2.01,6.27-2.05,9.47-.09,6.53-.24,7.44-2.48,9.62-.35-1.82-.71-3.49-.98-5.17-.37-2.3-1.56-4.16-3.82-4.55-2.55-.45-3.02,1.99-3.95,3.7-1.1,2.01-1.01,4.61-2.85,6.64,1.45.08,1.85-1.26,2.25-2.46.64-1.88,1.15-3.8,2.32-5.47,1.16-1.64,2.14-1.62,3.61-.28,1.56,1.43,1.58,3.29,2.06,5.07.31,1.17.37,2.81,1.89,2.88,1.74.07,1.98-1.65,2.28-2.95.15-.64.26-1.27.34-1.91.13,1.16.46,2.3,1.12,3.42,0-1.86.13-3.74-.05-5.59-.31-3.2-.26-6.21,2.62-8.39,0,0,.02-.03.02-.04.42-.61,1-1.29,1.64-2.03-.18-1.06.92-1.49,1.49-2.13,1.16-1.3,1.99-2.77,2.32-4.45.25-1.22.54-2.66-1.45-2.8h-.01ZM49.78,51.49c-.11.85-.26,1.72-.4,2.59,0-2.01-.06-3.97.06-5.83,1.14.79.53,1.84.34,3.24ZM42.51,42.66c2.85-1.32,3.54-.98,5.96,1.63-.87-4.07-2.22-4.69-5.96-1.63ZM35.33,46.62c0,5.1,7.76,2.74,12.07-.67-3.41,1.59-8.71,3.04-12.07.67ZM34.69,43.34c2.07-2.35,2.84-2.32,6.11-.9-2.44-3.38-3.93-3.41-6.11.9Z"/>
        <path class="cls-4" d="M119.31,28.34c-3.45-.68-6.96-.15-10.43-.36-1.95-.13-2.65.61-2.58,2.56.11,3.61.03,7.23.03,10.84s.12,6.98-.04,10.46c-.1,2.22.48,3.2,2.88,3.01,2.6-.19,5.23,0,7.85-.05,6.56-.09,11.14-4.4,11.76-11.05.79-8.54-2.57-14.04-9.47-15.41h0ZM122.75,45.6c-1.35,3.11-5.67,4.95-9.49,4.23-1.34-.25-1.57-.98-1.58-2.06-.01-2.24,0-4.48,0-6.72h-.02c0-1.12-.07-2.25.03-3.35.17-1.71-1.09-4.31,1.05-5.01,2.39-.78,5.19-.55,7.52,1.04,3.24,2.22,4.35,7.56,2.49,11.87Z"/>
        <path class="cls-2" d="M105.51,9.92c-.01-2.92-1.68-4.27-4.04-2.74-1.26.81-1.7.51-2.67.11-3.65-1.48-7.17-.66-9.46,2.11-2.37,2.87-2.63,8.05-.57,11.24,2.08,3.22,5.73,4.59,9.44,3.49.85-.25,1.66-.67,2.48-1.02.43,1.41-.09,2.24-.89,2.91-4.01,3.31-8.01-1.87-12.02-.04,1.71,4.45,4.7,5.82,10.92,5.02,4.06-.52,6.54-3.15,6.74-7.62.19-4.48.09-8.98.07-13.46ZM96.79,20.36c-2.79.25-4.88-1.89-4.9-4.8-.01-3.04,1.75-4.41,4.54-4.89,2.74.4,4.59,1.6,4.63,4.71.05,2.98-1.32,4.72-4.27,4.98Z"/>
        <path class="cls-4" d="M208.21,51.91c-.23-2.34-.05-4.72-.05-7.08s.02-4.72,0-7.08c-.03-3.03-1.52-4.32-3.98-2.95-1.26.7-1.77.66-2.95.13-4.36-1.98-9.03-.74-12.04,2.98-2.74,3.39-3.03,8.83-.66,12.59,2.51,3.97,7.08,5.66,11.64,4.45,1.53-.41,2.81-1.52,4.84-.31,1.75,1.04,3.45-.02,3.2-2.73ZM197.47,50.37c-3.15,0-5.63-2.5-5.66-5.69-.03-3.21,2.4-5.69,5.58-5.69,3.22,0,5.54,2.34,5.58,5.65.04,3.29-2.3,5.73-5.5,5.73Z"/>
        <path class="cls-4" d="M138.57,46.41c3.23-.05,6.47,0,9.7-.03,3.73,0,4.25-.71,3.35-4.42-1.18-4.82-6.28-8.47-11.2-8-4.86.47-9.16,4.74-9.53,9.49-.46,5.91,2.86,10.51,8.5,11.81,4.85,1.11,9.4-1.5,11.53-6.91-2.55-.13-4.57-.25-6.54,1.49-2.11,1.86-4.67,1.36-6.87-.28-.78-.58-1.59-1.42-1.22-2.51s1.49-.62,2.28-.64h0ZM139.67,38.66c.91-.24,1.96-.32,2.89-.14,1.77.34,3.78,1.33,3.62,3.11-.18,1.96-2.4.58-3.67.95-.45.14-.97.02-1.47.02-.37,0-.76.09-1.1,0-1.19-.33-3.24.89-3.46-.83-.21-1.61,1.58-2.66,3.19-3.1h0Z"/>
        <path class="cls-4" d="M83.81,46.73c3.73-.04,7.46-.15,11.18.02,2.73.12,3.09-1,2.6-3.36-1.11-5.31-5.48-9-10.8-8.86-4.93.13-9.34,4.1-9.92,8.92-.69,5.69,2.26,10.66,7.12,12.06,5.54,1.58,10.26-.73,12.83-6.52-2.48-.32-4.48-.34-6.49,1.3-2.28,1.85-6.2,1.14-7.69-.99-.4-.57-.83-1.39-.72-1.99.19-.94,1.22-.57,1.89-.58ZM82.92,40.95c2.17-2.99,6.62-2.42,9.69,1.88-3.4,0-6.21.03-9.01,0-1.75-.02-1.39-.9-.68-1.87Z"/>
        <path class="cls-2" d="M29.41.83c-1.12-.03-2.25.09-3.35-.05-2.5-.33-3.6.44-3.37,3.19.24,2.96.05,5.96.05,8.94v5.22c0,6.9,0,6.81,7.12,6.43,4.5-.24,8.25-1.38,10.35-5.86,4.09-8.75-1.22-17.6-10.8-17.87ZM36.26,14.75c-.91,4.05-3.47,5.7-7.69,5.17-1.28-.16-1.7-.65-1.68-1.85.05-1.87.01-3.73.01-5.59,0-1.12-.01-2.24,0-3.36.01-3.83,1.18-4.67,4.89-3.5,3.48,1.1,5.4,5.02,4.47,9.13Z"/>
        <path class="cls-4" d="M22.47,47c-.02,4.61-2.65,8.09-6.56,8.7-4.63.72-7.76-.93-9.2-5-.39-1.1-1.86-2.75.19-3.39,1.38-.43,3.53-1.13,4.26,1.49.52,1.85,1.94,2.54,3.77,2.15,1.34-.29,2.12-1.25,2.29-2.63.18-1.49-.26-2.77-1.66-3.45-1.67-.8-3.49-1.32-5.12-2.2-3.14-1.71-4.1-4.58-3.55-7.94.54-3.34,2.37-5.77,5.83-6.51,3.21-.69,5.96.18,7.8,3.03.85,1.33,2.06,3.24.56,4.31-1.34.96-3.57,1.11-4.54-1.39-.57-1.48-1.97-1.31-3.22-1.07-.98.19-1.42.97-1.52,1.9-.14,1.3-.02,2.57,1.37,3.16,1.48.62,3.05,1.04,4.53,1.66,3.5,1.47,4.78,3.45,4.77,7.18Z"/>
        <path class="cls-4" d="M154.84,44.52c0-2.36.2-4.75-.05-7.09-.29-2.76,1.43-3.72,3.18-2.72,2,1.13,3.24.26,4.86-.23,4.93-1.48,9.29,1.63,9.81,7.26.34,3.7.03,7.46.14,11.19.05,1.9-1.08,1.87-2.41,1.88-1.49.02-2.69,0-2.65-2.08.07-3.23,0-6.47-.14-9.7-.09-2.17-.83-3.88-3.43-4.04-2.58-.16-3.88,1.04-4.39,3.51-.62,2.97-.22,5.95-.36,8.93-.07,1.64.57,3.5-2.39,3.44-2.74-.06-2.14-1.77-2.16-3.27-.04-2.36,0-4.73,0-7.09h0Z"/>
        <path class="cls-2" d="M156.32,15.66c0-1.86.02-3.73,0-5.59-.03-3.08-1.4-4.3-3.93-2.92-1.19.65-1.68.55-2.7.12-3.46-1.49-6.58-.85-9.15,1.92-2.59,2.81-3.18,7.76-1.27,11.15,1.81,3.19,4.54,5.09,8.3,4.4,2.15-.39,4.1-1.09,6.36-.21,1.5.58,2.54-.23,2.42-2.15-.13-2.23-.03-4.48-.03-6.72h0ZM147.43,20.8c-2.75.22-4.72-2.31-4.6-5.49.11-3.04,1.86-4.36,4.24-4.65,3.21.1,4.97,2.2,4.87,5.28-.09,2.95-1.65,4.63-4.51,4.86Z"/>
        <path class="cls-2" d="M50.65,17.16c1.49-.05,2.99-.01,4.48-.01,1-.01,2,0,2.99-.01,4.48,0,5.19-1.14,3.34-5.3-1.65-3.72-5.22-5.74-9.38-5.31-3.67.38-7,3.15-7.83,6.52-1.1,4.4.55,8.63,4.15,10.68,3.28,1.87,8.35,1.54,10.92-.74.54-.48,1.33-.92,1.2-1.75-.17-1.02-1.26-1.08-1.99-1.45-1.2-.61-2.14.25-3.13.7-2.03.95-3.88.59-5.58-.76-.57-.46-1.17-1.06-1.01-1.86.22-1.03,1.18-.68,1.84-.71ZM52.67,10.04c2.1-.21,3.86.38,5.04,3.01h-8.76c.34-2.3,1.95-2.84,3.72-3.01Z"/>
        <path class="cls-2" d="M109.81,15.32c0-1.87.19-3.76-.04-5.6-.36-2.84,1.38-3.5,3.26-2.67,1.79.79,3,.27,4.56-.22,3.95-1.22,7.36,1.14,7.55,5.25.16,3.48,0,6.97.07,10.46.03,1.69-.8,2.1-2.31,2.09-1.51,0-1.9-.73-1.91-2.08-.02-2.86-.05-5.72-.26-8.57-.12-1.65-.63-3.34-2.8-3.27-2.07.06-3.22,1.48-3.43,3.32-.27,2.46-.19,4.97-.17,7.46.01,1.71.13,3.19-2.39,3.18-2.41,0-2.12-1.5-2.12-2.99v-6.35h0Z"/>
        <path class="cls-4" d="M52.82,48.27s0,.03-.02.04c-2.88,2.18-2.93,5.19-2.62,8.39.18,1.85.04,3.73.05,5.59-.43.75-.84,1.52-1.31,2.25-.56.86-1.31,1.53-2.42,1.49-1.41-.05-1.84-1.25-2.16-2.26-.55-1.76-.79-3.63-1.3-5.41-.31-1.07-.83-2.28-2.07-2.41-1.35-.14-1.79,1.14-2.17,2.17-.69,1.86-1.27,3.75-1.9,5.63-.31.93-.5,2.04-1.72,2.16-1.17.12-1.73-.87-2.28-1.66-2.84-4.09-1.57-8.62-1.31-13.02.08-1.29.95-2.59-.06-3.84-.01-.02-.03-.03-.04-.05,0-.37-.1-.71-.25-1.03h-.01c-.03-.08-.07-.14-.1-.21.29-2.15-1.67-2.83-3.14-3.85-.21-.15-.42-.31-.61-.48.01-.03.02-.05.03-.08h0v-.02s.04-.11.07-.16h0c.03-.07.06-.12.1-.18,1.35-2,1.18.3,1.79.46.6-.34.26-.78.08-1.18-1.11-2.46-1.85-5.07.25-7.24,2.2-2.27,5.01-1.57,7.61-.6,1.79.66,3.72,1.28,4.56,3.31,0,0,0,.03.02.05h-.03s-.03,0-.04-.02c-1.89-.84-3.72-1.86-5.69-2.45-3.99-1.18-7.01,1.48-5.3,5.11,2.86,6.11,2.69,12.22,1.95,18.57-.25,2.15.04,4.33,1.37,6.64.03.05.06.11.09.16.04-.05.09-.09.12-.14,1.84-2.03,1.75-4.63,2.85-6.64.93-1.71,1.4-4.15,3.95-3.7,2.26.39,3.45,2.25,3.82,4.55.27,1.68.63,3.35.98,5.17,2.24-2.18,2.39-3.09,2.48-9.62.04-3.2.17-7.89,2.05-9.47,1.89-1.59-.95,3.25-.23,4.9,1.04.23,1.31-.88,1.97-1.33.15-.1.32-.17.53-.18.02.19.1.47.06.6h0Z"/>
        <path class="cls-4" d="M180.39,54.78c-1.74.31-2.48-.36-2.42-2.21.11-3.24.09-6.48,0-9.72-.04-1.65.84-3.62-2.2-4.19-1.24-.23-1.46-3.51.09-3.83,2.8-.58,2.09-2.3,2.1-3.86,0-1.76,0-3.09,2.48-3.05,2.6.04,2.32,1.61,2.32,3.24,0,1.71-.42,3.59,2.4,3.52,1.2-.03.94,1.25.96,2.07.02.99.14,2.22-1.32,2.19-2.42-.04-2.03,1.63-2.04,3.08-.02,3.49-.07,6.98,0,10.47.04,1.76-.57,2.59-2.39,2.29h0Z"/>
        <path class="cls-2" d="M70.1,24.9c-1.17.08-2.7-.34-4.04-1.37-.88-.67-2.08-1.29-.8-2.61.79-.82,1.36-2.28,2.96-1.11.59.44,1.29.78,1.99,1.01.93.31,1.81.02,2.18-.9.35-.84-.32-1.38-.97-1.8-1.56-1.01-3.22-1.88-4.67-3.04-1.58-1.26-2.23-3.05-1.47-5.02.84-2.16,2.56-3.37,4.86-3.53,2.21-.15,4.18.49,5.73,2.17.75.82.16,1.39-.41,1.85-.75.6-1.17,2.12-2.66.96-.95-.74-2.4-1.66-3.06-.05-.54,1.32,1.31,1.49,2.13,2.11.49.37,1.11.55,1.65.87,2.46,1.46,4.06,3.45,3.14,6.46-.89,2.9-3.15,4-6.57,4h.01Z"/>
        <path class="cls-4" d="M73.9,42.09c0,3.73-.08,7.47.03,11.19.05,1.87-.74,2.34-2.44,2.3-1.57-.03-2.58-.2-2.56-2.18.08-7.59.07-15.18,0-22.76-.02-2.04,1.13-2.06,2.63-2.12,1.78-.07,2.42.59,2.37,2.38-.1,3.73-.03,7.46-.03,11.19Z"/>
        <path class="cls-4" d="M216.93,41.45c0,3.74-.06,7.48.03,11.21.04,1.6-.51,2.18-2.14,2.18s-2.49-.33-2.47-2.24c.09-7.47.06-14.95.02-22.42,0-1.56.48-2.22,2.14-2.23,1.69,0,2.51.4,2.46,2.29-.11,3.73-.03,7.47-.03,11.21h-.01Z"/>
        <path class="cls-4" d="M166.97,76.5c-4.6.03-7.32-1.82-8.59-5.61-1.22-3.66-.27-7.04,2.65-9.37,2.99-2.39,7.24-2.65,10.44-.48.76.52,2.39.87,1.4,2.44-.86,1.38-1.84,1.14-3.11.32-2.02-1.3-4.26-1.42-6.33-.07-1.66,1.09-2.53,2.75-2.36,4.79.33,3.95,4.35,6.12,8,4.29,1.39-.7,2.97-2.28,3.83.13.61,1.73-1.51,2.17-2.67,2.91-1.09.7-2.36.73-3.26.66h0Z"/>
        <path class="cls-4" d="M186.33,70.18c0-5.98,1.2-7.05,7.2-6.28,1.91.25,3.32,1.32,3.5,3.31.22,2.47.19,4.96.23,7.44.02,1.01-.47,1.64-1.56,1.67-1.27.04-1.78-.64-1.79-1.84-.02-1.87-.04-3.73-.12-5.6-.05-1.07-.42-2.01-1.71-2.01-1.16,0-1.92.72-2.04,1.79-.2,1.85-.21,3.72-.25,5.58-.03,1.31-.45,2.14-1.95,2.09-1.44-.05-1.5-1.02-1.5-2.06v-4.11.02Z"/>
        <path class="cls-4" d="M65,45.35c0,2.61-.08,5.22.03,7.82.07,1.72-.47,2.43-2.3,2.42-1.71-.02-2.45-.49-2.42-2.31.08-5.21.07-10.43,0-15.64-.02-1.7.49-2.46,2.32-2.44,1.72.02,2.49.5,2.4,2.34-.12,2.6-.03,5.21-.03,7.82h0Z"/>
        <path class="cls-2" d="M79.82,15.54c0-1.99.06-3.98-.02-5.97-.07-1.7.11-2.82,2.33-2.75,1.93.06,2.24.93,2.21,2.54-.06,4.23-.06,8.46,0,12.69.02,1.59-.27,2.56-2.2,2.63-2.21.09-2.4-1.09-2.34-2.79.07-2.11.02-4.23.02-6.34h0Z"/>
        <path class="cls-4" d="M212.14,76.47c-3.59.12-5.82-1.12-6.91-3.8-1.06-2.62-.67-5.2,1.61-7.11,2.43-2.03,5.2-2.24,8.01-.82.77.39,2.14.86,1.52,2.05-.51.99-1.65,1.49-2.86.65-1.24-.86-2.55-.9-3.85-.17-1.5.84-1.98,2.19-1.64,3.8.36,1.69,1.53,2.5,3.23,2.47.61-.01,1.32-.03,1.8-.33,1.28-.81,2.69-.82,3.17.49.56,1.53-1.19,1.87-2.23,2.34-.77.34-1.67.39-1.86.44h.01Z"/>
        <path class="cls-4" d="M178.72,68.02v6.34c0,1.1-.18,1.98-1.6,1.95-1.4-.03-1.58-.93-1.58-2.01,0-4.35,0-8.71,0-13.06,0-.95.26-1.71,1.43-1.77,1.32-.07,1.74.62,1.73,1.82-.02,2.24,0,4.48,0,6.72h.01Z"/>
        <path class="cls-4" d="M56.85,36.83l-.03.03h-.02c-1.14,1-1.43,2.31-1.74,3.75-.25,1.15-1.2,2.38-2.68,2.08-1.4-.27-.79-1.61-.81-2.5-.18-5.88-1.98-6.88-7.06-3.83-1.47.88-2.9,1.81-4.68,2.39.66-.88,1.33-1.77,1.99-2.65,0,0,0,0,0,0h.04c1.18-.13,1.99-.95,2.86-1.62,1.9-1.48,4-2.11,6.24-1,2.13,1.06,2.09,3.2,2.13,5.21v2.28c.85-.11,1.41-.85,1.82-1.7h0c.3-.63.52-1.32.72-1.87.29-.81.54-1.33.92-.96.09.09.19.22.29.4Z"/>
        <path class="cls-4" d="M183.98,70.38c0,1.49,0,2.98,0,4.47,0,.84-.34,1.4-1.3,1.45-1.01.05-1.75-.25-1.76-1.38-.02-3.1,0-6.21.03-9.31,0-.92.6-1.24,1.46-1.27,1.12-.04,1.57.52,1.57,1.57v4.47h0Z"/>
        <path class="cls-4" d="M199.65,70.38v-4.48c0-1.04.43-1.59,1.57-1.58,1.16,0,1.5.62,1.5,1.63v8.59c0,.95-.15,1.71-1.37,1.77-1.36.07-1.74-.64-1.72-1.82.02-1.37,0-2.74,0-4.11h.02Z"/>
        <path class="cls-2" d="M84.85,2.71c-.27,1.54-.92,2.77-2.79,2.74-1.76-.04-2.73-1-2.82-2.72-.09-1.82.95-2.69,2.71-2.73,1.81-.04,2.67.97,2.89,2.71h.01Z"/>
        <path class="cls-3" d="M23.61,41.92s.03.02.04.03c-.02,0-.03,0-.04-.02h0Z"/>
        <path class="cls-3" d="M31.11,46.17c-.03.26-.11.55-.22.86-.68-.5-1.69-1.13-2.76-1.78h-.01c-1.03-1.63-2.93-2.2-4.43-3.28.04,0,.05-.14.03-.3,0-.04,0-.09-.01-.13.89-.29,5.7,2.8,7.4,4.63Z"/>
        <path class="cls-4" d="M64.97,30.66c.24,1.62-.19,2.57-2.12,2.5-1.54-.05-2.61-.17-2.56-2.15.04-1.6.26-2.6,2.21-2.49,1.48.09,2.83.05,2.47,2.14Z"/>
        <path class="cls-4" d="M58.99,39.59c-.38,2.16-2.71,4.59-4.53,6.65-.64.74-1.22,1.42-1.64,2.03,0,0,0,.03-.02.04-.78.27,2.55-3.97,2.85-4.64.99-2.19,3.73-4.03,1.15-6.8h0v-.02c-.15-.19-.22-.33-.23-.42-.15-.73,2.77,1.22,2.43,3.16h-.01Z"/>
        <path class="cls-4" d="M184.17,61.39c-.07,1.18-.67,1.77-1.86,1.74-1.16-.03-1.87-.71-1.89-1.79-.03-1.29.82-2,2.1-1.95,1.21.05,1.57.94,1.64,2h0Z"/>
        <path class="cls-4" d="M203.06,61.4c-.18,1.22-.83,1.76-2.01,1.74-1.24-.02-1.87-.8-1.81-1.84.06-1.18.77-2.13,2.17-1.92,1.11.17,1.63.97,1.66,2.02h-.01Z"/>
        <path class="cls-4" d="M25.27,36.97c-.83-.1-1.6-.32-2.21.02-.39.21-.57.56-.65.71-.51,1,.19,2.39.74,3.3-.55-1.25-.92-2.51.87-3.05,2.51-.74,2.41,1.09,2.71,2.52,0,0,.39-.05.49.12-.18-2.08.8-3.31-1.95-3.62ZM27.48,41.51h0c-.01-.26-.09-.68-.26-.92,0,.11.02.21.03.32.07.43.12.66.16.76h0v.02c.05.1.08,0,.07-.18ZM31.24,46.31h-.01c-.04-.06-.08-.09-.12-.14-1.7-1.83-6.51-4.92-7.4-4.63.01.04.01.09.01.13,0,.17-.04.3-.04.3-.01,0-.02,0-.04-.02-.01,0-.01,0-.02,0,.34.72,2.5,2.07,4.5,3.31h.01c1.07.65,2.08,1.28,2.76,1.78.21.14.38.28.52.4.05,0,.09-.03.12-.04.32-.15.16-.55-.29-1.08Z"/>
        <path class="cls-4" d="M47.4,45.95c-4.31,3.41-12.07,5.77-12.07.67,3.36,2.37,8.66.92,12.07-.67Z"/>
        <path class="cls-4" d="M48.47,44.29c-2.42-2.61-3.11-2.95-5.96-1.63,3.74-3.06,5.09-2.44,5.96,1.63Z"/>
        <path class="cls-4" d="M40.8,42.44c-3.27-1.42-4.04-1.45-6.11.9,2.18-4.31,3.67-4.28,6.11-.9Z"/>
      </g>
    </g>
  </g>
</svg>