<?xml version="1.0" encoding="UTF-8"?>
<svg id="Layer_2" data-name="Layer 2" xmlns="http://www.w3.org/2000/svg" viewBox="0 0 63.66 57.6">
  <defs>
    <style>
      .cls-1 {
        fill: #fcfdfd;
      }

      .cls-1, .cls-2, .cls-3 {
        stroke-width: 0px;
      }

      .cls-2 {
        fill: #f0f8fa;
      }

      .cls-3 {
        fill: #197af5;
      }
    </style>
  </defs>
  <g id="Layer_2-2" data-name="Layer 2">
    <g>
      <path class="cls-1" d="M59.84,8.44h-.05l.1-.05s-.09.02-.12.03c-.9.17-1.52.49-1.97.91-.35.93-.73,2.09-1.25,3.13h0c-.05.54-.09,1.06-.14,1.6-.14,1.3-1.19,2.44-2.56,2.43-1.7-.02-1.71-1.53-1.76-2.81-.03-1.04.03-2.09-.05-3.12-.54-6.29-4.88-8.66-10.78-5.92-2.94,1.38-5.31,3.62-8.15,5.16.59-.78,1.49-1.47.85-2.61-.43-.76-.43-.78,0-.03.64,1.11-.02-.02-.03-.02-3.37-2.6-6.97-4.82-11.3-5.54-6.25-1.04-10,2.33-9.64,8.51.1,1.72.8,3.24,1.33,4.84,2.27,6.69,4.97,13.16,3.06,20.7-1.11,4.33-.54,9.2-.02,13.79.22,1.95.92,4.37,3.27,4.7-2.3-3.89-2.8-7.57-2.37-11.19,1.28-10.7,1.57-21-3.37-31.3-2.96-6.12,2.27-10.6,9.17-8.61,3.41.99,6.57,2.71,9.85,4.13-1.14,1.48-2.3,2.98-3.44,4.47,3.08-.98,5.55-2.54,8.1-4.03,8.79-5.14,11.9-3.45,12.22,6.45.03,1.5-1.02,3.76,1.4,4.21,2.56.51,4.2-1.57,4.64-3.51.54-2.43,1.04-4.63,3.01-6.3,4.46,4.67-.28,7.77-1.99,11.46-.52,1.13-4.81,5.17-5.92,7.04-1.14.76-1.61,2.63-3.41,2.24-1.25-2.78,3.67-10.94.4-8.26-3.25,2.66-3.48,10.57-3.55,15.96-.16,11.01-.42,12.54-4.29,16.21-.61-3.07-1.23-5.88-1.7-8.71-.64-3.88-2.7-7.01-6.61-7.67-4.41-.76-5.23,3.35-6.83,6.24-1.9,3.39-1.75,7.77-4.93,11.19,2.51.13,3.2-2.12,3.89-4.15,1.11-3.17,1.99-6.4,4.01-9.22,2.01-2.76,3.7-2.73,6.25-.47,2.7,2.41,2.73,5.54,3.56,8.54.54,1.97.64,4.74,3.27,4.85,3.01.12,3.43-2.78,3.94-4.97.26-1.08.45-2.14.59-3.22.22,1.95.8,3.88,1.94,5.76-.02-3.13.22-6.3-.09-9.42-.54-5.39-.45-10.47,4.53-14.14.02-.02.03-.05.03-.07.73-1.03,1.73-2.17,2.84-3.42-.31-1.79,1.59-2.51,2.58-3.59,2.01-2.19,3.44-4.67,4.01-7.5.43-2.06.93-4.48-2.51-4.72h-.02Z"/>
      <path class="cls-1" d="M47.66,33.09c-.19,1.43-.45,2.9-.69,4.37,0-3.39-.1-6.69.1-9.83,1.97,1.33.92,3.1.59,5.46Z"/>
      <path class="cls-1" d="M35.08,18.21c4.93-2.22,6.13-1.65,10.31,2.75-1.51-6.86-3.84-7.9-10.31-2.75Z"/>
      <path class="cls-1" d="M22.66,24.88c0,8.6,13.43,4.62,20.88-1.13-5.9,2.68-15.07,5.12-20.88,1.13Z"/>
      <path class="cls-1" d="M21.55,19.36c3.58-3.96,4.91-3.91,10.57-1.52-4.22-5.7-6.8-5.75-10.57,1.52Z"/>
      <path class="cls-3" d="M52.92,27.67s-.02.05-.03.07c-4.98,3.67-5.07,8.75-4.53,14.14.31,3.12.07,6.29.09,9.42-.74,1.26-1.45,2.56-2.27,3.79-.97,1.45-2.27,2.58-4.19,2.51-2.44-.08-3.18-2.11-3.74-3.81-.95-2.97-1.37-6.12-2.25-9.12-.54-1.8-1.44-3.84-3.58-4.06-2.34-.24-3.1,1.92-3.75,3.66-1.19,3.13-2.2,6.32-3.29,9.49-.54,1.57-.87,3.44-2.98,3.64-2.02.2-2.99-1.47-3.94-2.8-4.91-6.89-2.72-14.53-2.27-21.94.14-2.17,1.64-4.37-.1-6.47-.02-.03-.05-.05-.07-.08,0-.62-.17-1.2-.43-1.74h-.02c-.05-.13-.12-.24-.17-.35.5-3.62-2.89-4.77-5.43-6.49-.36-.25-.73-.52-1.06-.81.02-.05.03-.08.05-.13h0v-.03s.07-.19.12-.27h0c.05-.12.1-.2.17-.3,2.34-3.37,2.04.51,3.1.78,1.04-.57.45-1.31.14-1.99-1.92-4.15-3.2-8.54.43-12.2C16.73-1.27,21.59-.09,26.09,1.54c3.1,1.11,6.44,2.16,7.89,5.58.02.02.02.05.03.08h-.05s-.05-.02-.07-.03c-3.27-1.42-6.44-3.13-9.85-4.13-6.9-1.99-12.13,2.49-9.17,8.61,4.95,10.3,4.65,20.59,3.37,31.3-.43,3.62.07,7.3,2.37,11.19.05.08.1.19.16.27.07-.08.16-.15.21-.24,3.18-3.42,3.03-7.8,4.93-11.19,1.61-2.88,2.42-6.99,6.83-6.24,3.91.66,5.97,3.79,6.61,7.67.47,2.83,1.09,5.65,1.7,8.71,3.88-3.67,4.14-5.21,4.29-16.21.07-5.39.29-13.3,3.55-15.96,3.27-2.68-1.64,5.48-.4,8.26,1.8.39,2.27-1.48,3.41-2.24.26-.17.55-.29.92-.3.03.32.17.79.1,1.01v-.02Z"/>
      <path class="cls-3" d="M59.9,8.39l-.05.05h-.03c-1.97,1.69-2.47,3.89-3.01,6.32-.43,1.94-2.08,4.01-4.64,3.51-2.42-.46-1.37-2.71-1.4-4.21-.31-9.91-3.43-11.6-12.22-6.45-2.54,1.48-5.02,3.05-8.1,4.03,1.14-1.48,2.3-2.98,3.44-4.47.02,0,.02-.02.02-.02h.02l.05-.02c2.04-.2,3.44-1.58,4.95-2.71,3.29-2.49,6.92-3.56,10.8-1.69,3.69,1.79,3.62,5.39,3.69,8.78v3.84c1.47-.19,2.44-1.43,3.15-2.87h0c.52-1.06.9-2.22,1.25-3.15.5-1.37.93-2.24,1.59-1.62.16.15.33.37.5.67Z"/>
      <path class="cls-2" d="M15.36,24.13c-.05.44-.19.93-.38,1.45-1.18-.84-2.92-1.9-4.78-3h-.02c-1.78-2.75-5.07-3.71-7.66-5.53.07,0,.09-.24.05-.51,0-.07,0-.15-.02-.22,1.54-.49,9.86,4.72,12.8,7.8Z"/>
      <path class="cls-3" d="M63.6,13.04c-.66,3.64-4.69,7.74-7.84,11.21-1.11,1.25-2.11,2.39-2.84,3.42,0,.02-.02.05-.03.07-1.35.46,4.41-6.69,4.93-7.82,1.71-3.69,6.45-6.79,1.99-11.46h0l-.02-.03c-.24-.32-.36-.56-.38-.71-.26-1.23,4.79,2.06,4.2,5.33h-.02Z"/>
      <path class="cls-3" d="M5.25,8.62c-1.44-.17-2.77-.54-3.82.03-.67.35-.99.94-1.12,1.2-.88,1.69.33,4.03,1.28,5.56C.63,13.31,0,11.18,3.09,10.27c4.34-1.25,4.17,1.84,4.69,4.25,0,0,.67-.08.85.2-.31-3.51,1.38-5.58-3.37-6.1Z"/>
      <path class="cls-3" d="M9.08,16.27h0c-.02-.44-.16-1.15-.45-1.55,0,.19.03.35.05.54.12.72.21,1.11.28,1.28h0v.03c.09.17.14,0,.12-.3Z"/>
      <path class="cls-3" d="M15.58,24.36h-.02c-.07-.1-.14-.15-.21-.24-2.94-3.08-11.26-8.29-12.8-7.8.02.07.02.15.02.22,0,.29-.07.51-.07.51-.02,0-.03-.02-.07-.03-.02,0-.02-.02-.03-.02.59,1.21,4.33,3.49,7.79,5.58h.02c1.85,1.1,3.6,2.16,4.78,3,.36.24.66.47.9.67.09-.02.16-.05.21-.07.55-.25.28-.93-.5-1.82Z"/>
      <path class="cls-3" d="M43.54,23.76c-7.46,5.75-20.88,9.72-20.88,1.13,5.81,3.99,14.98,1.55,20.88-1.13Z"/>
      <path class="cls-3" d="M45.4,20.96c-4.19-4.4-5.38-4.97-10.31-2.75,6.47-5.16,8.81-4.11,10.31,2.75Z"/>
      <path class="cls-3" d="M32.13,17.84c-5.66-2.39-6.99-2.44-10.57,1.52,3.77-7.26,6.35-7.21,10.57-1.52Z"/>
    </g>
  </g>
</svg>